<?xml version="1.0" encoding="UTF-8" standalone="no" ?>
<!DOCTYPE svg PUBLIC "-//W3C//DTD SVG 1.1//EN" "http://www.w3.org/Graphics/SVG/1.1/DTD/svg11.dtd">
<svg xmlns="http://www.w3.org/2000/svg" xmlns:xlink="http://www.w3.org/1999/xlink" version="1.1" width="640" height="640" viewBox="0 0 640 640" xml:space="preserve">
<desc>Created with Fabric.js 5.3.0</desc>
<defs>
</defs>
<g transform="matrix(1.4209417651 0 0 1.4209417651 320 320)" id="ICP5W5hZASr91D10d9-OE"  >
<path style="stroke: rgb(207,63,74); stroke-width: 0; stroke-dasharray: none; stroke-linecap: butt; stroke-dashoffset: 0; stroke-linejoin: miter; stroke-miterlimit: 4; fill: rgb(0,0,0); fill-rule: nonzero; opacity: 1;" vector-effect="non-scaling-stroke"  transform=" translate(-128.3585848763, -134.377765)" d="M 0.17944 34.28646 C 0.17944 31.205869999999997 0.58844 28.22081 1.3551 25.38261 C 2.86048 11.33151 14.74008 0.3804799999999986 29.19027 0.3497400000000006 L 31.39948 0.3450400000000006 C 32.33524 0.26785000000000064 33.28172 0.22849000000000064 34.2374 0.22849000000000064 L 34.2374 0.33901000000000064 L 68.9983 0.26507000000000064 L 70.47654 0.12798000000000065 L 93.31376 6.38378239159465e-16 L 212.68745 0.4440100000000007 C 231.15461000000002 0.5127000000000007 246.81307 14.03725 249.56736 32.298 L 249.57774 32.36679 C 251.52468000000002 45.27485 251.64005 58.39309 249.92046000000002 71.33339000000001 L 248.88208000000003 79.14738000000001 C 246.52719000000002 96.86839 231.52435000000003 110.17638000000001 213.64896000000005 110.40026000000002 L 173.65101000000004 110.90122000000002 L 140.57381000000004 112.03987000000002 C 140.11172000000005 111.69485000000002 139.89976000000004 111.10761000000002 140.03496000000004 110.54700000000003 C 140.17016000000004 109.98639000000003 140.62651000000005 109.56033000000002 141.19507000000004 109.46387000000003 C 151.53273000000004 107.71011000000003 170.69512000000003 105.12213000000003 171.57877000000005 100.16830000000003 C 171.63143000000005 99.87312000000003 171.62363000000005 99.99445000000003 171.62281000000004 99.90701000000003 C 171.61179000000004 98.72568000000003 171.08497000000006 97.60819000000002 170.18068000000005 96.84798000000004 C 169.27640000000005 96.08777000000003 168.08500000000006 95.76081000000003 166.91935000000007 95.95295000000003 L 149.49859000000006 98.82450000000003 C 148.84070000000006 98.93296000000002 148.20055000000008 98.55092000000003 147.98368000000008 97.92041000000003 C 147.76681000000008 97.28989000000003 148.03649000000007 96.59490000000004 148.62190000000007 96.27571000000003 C 152.34277000000006 94.24691000000003 155.16866000000007 92.71048000000003 159.77066000000008 89.90112000000003 C 167.28877000000008 85.31156000000003 167.34204000000008 85.39819000000003 171.50993000000008 84.48993000000003 C 171.5557200000001 84.47995000000003 171.6023700000001 84.47447000000003 171.64922000000007 84.47356000000003 L 195.47273000000007 84.01254000000003 L 205.31813000000008 82.58609000000003 C 209.1445300000001 82.03170000000003 212.53554000000008 79.82772000000003 214.59585000000007 76.55606000000003 L 216.86249000000007 72.95675000000003 C 224.14148000000006 61.398090000000025 223.78538000000006 46.60297000000003 215.95873000000006 35.40788000000003 C 213.06970000000007 31.275460000000027 208.34511000000006 28.813790000000026 203.30295000000007 28.813790000000026 L 65.78167000000008 28.813790000000026 L 65.78167000000008 28.668640000000025 L 47.43361000000007 28.668640000000025 C 40.76842000000007 28.668640000000025 35.24324000000007 33.549570000000024 34.237390000000076 39.93210000000003 L 34.237390000000076 149.06672000000003 C 34.237390000000076 158.62772000000004 26.486670000000075 166.37845000000004 16.925660000000075 166.37845000000004 C 7.676960000000076 166.37845000000004 0.17942000000007496 158.88090000000005 0.17942000000007496 149.63221000000004 z M 99.60612 174.32659 C 80.34891 174.32659 64.73785000000001 158.71553 64.73785000000001 139.45832000000001 L 64.73785000000001 98.32214000000002 C 64.73785000000001 79.78498000000002 79.64204000000001 64.69295000000002 98.17775 64.46080000000002 L 135.86764 63.98875000000002 L 168.94484 62.85010000000002 C 169.40693 63.19512000000002 169.61889 63.78236000000002 169.48369 64.34297000000002 C 169.34849 64.90358000000002 168.89213999999998 65.32964000000003 168.32358 65.42610000000002 C 157.98592 67.17986000000002 138.82353 69.76784000000002 137.93988 74.72167000000002 C 137.88721999999999 75.01685000000002 137.89502 74.89552000000002 137.89584 74.98296000000002 C 137.90686 76.16429000000002 138.43367999999998 77.28178000000003 139.33796999999998 78.04199000000003 C 140.24224999999998 78.80220000000003 141.43364999999997 79.12916000000003 142.59929999999997 78.93702000000003 L 160.02005999999997 76.06547000000003 C 160.67794999999998 75.95701000000004 161.31809999999996 76.33905000000003 161.53496999999996 76.96956000000003 C 161.75183999999996 77.60008000000003 161.48215999999996 78.29507000000002 160.89674999999997 78.61426000000003 C 157.17587999999998 80.64306000000003 154.34998999999996 82.17949000000003 149.74798999999996 84.98885000000003 C 142.22987999999995 89.57841000000003 142.17660999999995 89.49178000000003 138.00871999999995 90.40004000000003 C 137.96292999999994 90.41002000000003 137.91627999999994 90.41550000000004 137.86942999999997 90.41641000000003 L 114.04591999999997 90.87743000000003 L 107.58703999999997 91.81323000000003 C 102.18088999999998 92.59650000000003 98.16992999999998 97.23047000000003 98.16992999999998 102.69306000000003 L 98.16992999999998 133.76384000000002 C 98.16992999999998 140.56376 103.68234999999999 146.07618000000002 110.48226999999999 146.07618000000002 L 215.48656 146.07618000000002 C 216.52737 146.07618000000002 217.56225 146.13361000000003 218.58698 146.24673 L 225.17891 146.17758 C 236.61626 146.05761 246.7942 153.41174 250.27147 164.30834000000002 C 258.30035 189.46821000000003 258.84024999999997 216.41981 251.82545 241.88104 L 249.23299999999998 251.29069 C 246.39055999999997 261.60774000000004 237.00715999999997 268.75553 226.30570999999998 268.75553 L 20.25960999999998 268.75553 C 18.74796999999998 268.75553 17.29133999999998 268.43307000000004 15.96789999999998 267.84285 C 6.738869999999981 265.13398 0.000009999999980081498 256.60248 0.000009999999980081498 246.49703 L 0.000009999999980081498 184.02908 L 3.4784799999999803 190.01415 C 6.2022099999999805 194.70061 11.16879999999998 197.63157 16.58796999999998 197.75052 C 22.007139999999982 197.86947 27.09755999999998 195.15926 30.024299999999982 190.59682999999998 L 34.237419999999986 184.02909 L 34.237419999999986 236.33114999999998 C 34.44975999999998 236.32213 34.66270999999998 236.31812999999997 34.876089999999984 236.31919 L 207.13486999999998 237.17673 C 210.90359999999998 237.19548999999998 214.47944999999999 235.51215 216.86638 232.59561 C 229.37327 217.31366 229.61405 195.40309 217.44601 179.84999 C 214.92279 176.62482 211.16545 174.6308 207.11519 174.32658999999998 z" stroke-linecap="round" />
</g>
</svg>